<svg width="62" height="62" viewBox="0 0 62 62" fill="none" xmlns="http://www.w3.org/2000/svg">
<path d="M48.7627 8C47.9592 8 47.1557 8.15993 46.3522 8.47979C45.5888 8.79965 44.9058 9.25945 44.3032 9.85919L19.8362 33.8488L18.6309 34.9883C17.064 35.2681 15.7583 35.9878 14.7137 37.1473C14.1111 37.7871 13.629 38.5867 13.2674 39.5463C13.0264 40.106 12.7451 41.0057 12.4237 42.2451L12.1827 43.3246C11.7809 44.764 11.3992 45.9835 11.0377 46.9831C10.4752 48.3824 9.77213 49.7219 8.92844 51.0013L7 54H10.5556C13.9303 54 17.064 53.3003 19.9567 51.9009C22.086 50.8614 23.9743 49.5219 25.6215 47.8827L25.6817 47.8227C26.7665 46.7032 27.4495 45.3038 27.7307 43.6245L28.6949 42.7249L53.162 18.7353V18.6754C53.9655 17.8757 54.5078 16.9361 54.7891 15.8566C55.0703 14.7771 55.0703 13.7175 54.7891 12.678C54.5078 11.5984 53.9655 10.6588 53.162 9.85919C51.9165 8.61973 50.4501 8 48.7627 8ZM48.7627 11.7784C49.3653 11.7784 49.9278 12.0382 50.4501 12.558C50.9724 13.0778 51.2335 13.6575 51.2335 14.2973C51.2335 14.897 50.9724 15.4568 50.4501 15.9765L33.0339 33.1291L29.5386 29.6506L47.0151 12.558C47.5374 12.0382 48.1199 11.7784 48.7627 11.7784ZM26.7665 32.3494L30.2618 35.8279L27.3691 38.6467L23.8738 35.1682L26.7665 32.3494ZM20.1375 38.7067C21.2222 38.7466 22.1463 39.1265 22.9096 39.8462C23.7131 40.5259 24.1149 41.3855 24.1149 42.425C24.1149 43.4646 23.7131 44.3842 22.9096 45.1838C21.9052 46.1834 20.7401 47.063 19.4143 47.8227C17.7269 48.7823 15.8989 49.442 13.9303 49.8018C14.774 47.9626 15.4369 46.1434 15.919 44.3442C16.2806 42.9448 16.5618 41.9452 16.7627 41.3455C17.0439 40.5059 17.3051 39.9661 17.5461 39.7262C18.189 39.0065 19.0527 38.6667 20.1375 38.7067Z" fill="white"/>
</svg>
