<svg width="41" height="42" viewBox="0 0 41 42" fill="none" xmlns="http://www.w3.org/2000/svg">
<path d="M29.1033 19C22.9815 19 18 23.9815 18 30.1033C18 36.2251 22.9789 41.2092 29.1033 41.2092C35.2277 41.2092 40.2066 36.2277 40.2066 30.1059C40.2066 23.9841 35.2251 19 29.1033 19V19ZM33.7261 32.3147C34.3923 32.981 34.3923 34.0624 33.7261 34.7312C33.0598 35.3974 31.9784 35.3974 31.3096 34.7312L29.1008 32.5223L26.8919 34.7312C26.2256 35.3974 25.1443 35.3974 24.4754 34.7312C23.8092 34.0649 23.8092 32.9836 24.4754 32.3147L26.6843 30.1059L24.4754 27.897C23.8092 27.2308 23.8092 26.1494 24.4754 25.4806C25.1417 24.8117 26.2231 24.8143 26.8919 25.4806L29.1008 27.6894L31.3096 25.4806C31.9759 24.8143 33.0573 24.8143 33.7261 25.4806C34.3949 26.1468 34.3923 27.2282 33.7261 27.897L31.5172 30.1059L33.7261 32.3147Z" fill="#E68CFF"/>
<path d="M1.70919 41C0.763624 41 0 40.2364 0 39.2908V27.3316C0 26.3912 0.763624 25.625 1.70919 25.625C2.65475 25.625 3.41837 26.3912 3.41837 27.3342V39.2934C3.41581 40.2364 2.65219 41 1.70919 41V41Z" fill="white"/>
<path d="M11.9592 40.9997C11.0136 40.9997 10.25 40.2361 10.25 39.2905V20.4997C10.25 19.5567 11.0162 18.7905 11.9592 18.7905C12.9022 18.7905 13.6684 19.5567 13.6684 20.4997V39.2905C13.6658 40.2361 12.9022 40.9997 11.9592 40.9997Z" fill="white"/>
<path d="M23.9158 10.2497V16.6739C22.6679 17.2197 21.525 17.9552 20.5 18.8264V10.2497C20.5 9.30928 21.2687 8.54053 22.2092 8.54053C23.1496 8.54053 23.9158 9.30928 23.9158 10.2497Z" fill="white"/>
<path d="M34.1658 1.70919V16.0079C33.0716 15.6825 31.9288 15.4621 30.75 15.3929V1.70919C30.75 0.76875 31.5187 0 32.4592 0C33.3971 0 34.1658 0.76875 34.1658 1.70919V1.70919Z" fill="white"/>
</svg>
