<svg width="62" height="62" viewBox="0 0 62 62" fill="none" xmlns="http://www.w3.org/2000/svg">
<path d="M10.4624 8L8 10.4624L52.5376 55L55 52.5376L44.2403 41.7779C45.0968 40.85 45.757 39.7973 46.221 38.6196C46.6849 37.4419 46.9169 36.2107 46.9169 34.926V28.074H43.4909V34.926C43.4909 36.6033 42.9377 38.0843 41.8314 39.369L39.4226 36.9601C39.8508 36.3535 40.0649 35.6754 40.0649 34.926V14.3702C40.0649 13.4423 39.7259 12.6393 39.0478 11.9613C38.3698 11.2832 37.5668 10.9442 36.639 10.9442H26.361C25.4332 10.9442 24.6302 11.2832 23.9522 11.9613C23.2741 12.6393 22.9351 13.4423 22.9351 14.3702V20.4727L10.4624 8ZM26.361 14.3702H36.639V34.1765L26.361 23.8986V14.3702ZM16.0831 28.074V34.926C16.0831 36.7817 16.5471 38.4947 17.4749 40.0649C18.4028 41.6352 19.6519 42.8842 21.2221 43.8121C22.7923 44.7399 24.5053 45.2039 26.361 45.2039H29.787V48.6298H22.9351V52.0558H40.0649V48.6298H33.213V45.2039H36.639C36.9244 45.2039 37.3527 45.1682 37.9237 45.0968L34.6048 41.7779H26.361C25.112 41.7779 23.9522 41.4746 22.8815 40.8679C21.8466 40.2612 21.0258 39.4404 20.4191 38.4055C19.8125 37.3349 19.5091 36.175 19.5091 34.926V28.074H16.0831ZM22.9351 30.1082V34.926C22.9351 35.8538 23.2741 36.6568 23.9522 37.3349C24.6302 38.0129 25.4332 38.3519 26.361 38.3519H31.1788L27.7528 34.926H26.361V33.5342L22.9351 30.1082Z" fill="white"/>
</svg>
