<svg width="62" height="62" viewBox="0 0 62 62" fill="none" xmlns="http://www.w3.org/2000/svg">
<path d="M11.5007 9.5L8.61914 12.3815L51.1184 54.4271L54 51.5455L45.4092 43.5273C46.4115 42.4415 47.1841 41.2095 47.727 39.8314C48.2699 38.4533 48.5414 37.0125 48.5414 35.5091V27.4909H44.5322V35.5091C44.5322 37.4719 43.8849 39.205 42.5903 40.7084L39.7714 37.8895C40.2726 37.1795 40.5231 36.3861 40.5231 35.5091V11.4544C40.5231 10.3686 40.1264 9.42899 39.3329 8.63552C38.5395 7.84205 37.5998 7.44531 36.514 7.44531H24.4867C23.4009 7.44531 22.4612 7.84205 21.6677 8.63552C20.8742 9.42899 20.4775 10.3686 20.4775 11.4544V18.5957L11.5007 9.5ZM24.4867 11.4544H36.514V34.6321L24.4867 22.6048V11.4544ZM12.4593 27.4909V35.5091C12.4593 37.6807 13.0021 39.6853 14.0879 41.5228C15.1737 43.3603 16.6354 44.8219 18.4729 45.9077C20.3104 46.9935 22.3151 47.5364 24.4867 47.5364H28.4958V51.5455H20.4775V55.5546H40.5231V51.5455H32.5049V47.5364H36.514C36.8481 47.5364 37.3493 47.4947 38.0174 47.4111L34.1336 43.5273H24.4867C23.025 43.5273 21.6677 43.1723 20.4148 42.4624C19.2037 41.7524 18.2432 40.7919 17.5333 39.5808C16.8233 38.328 16.4684 36.9707 16.4684 35.5091V27.4909H12.4593ZM20.4775 29.8713V35.5091C20.4775 36.5949 20.8742 37.5345 21.6677 38.328C22.4612 39.1215 23.4009 39.5182 24.4867 39.5182H30.1245L26.1154 35.5091H24.4867V33.8804L20.4775 29.8713Z" fill="white"/>
</svg>
