<svg width="62" height="62" viewBox="0 0 62 62" fill="none" xmlns="http://www.w3.org/2000/svg">
<path d="M24.3333 7C23.2199 7 22.2564 7.39583 21.4427 8.1875C20.6291 8.97917 20.2222 9.91667 20.2222 11V35C20.2222 36.0833 20.6291 37.0208 21.4427 37.8125C22.2564 38.6042 23.2199 39 24.3333 39H36.6667C37.7801 39 38.7436 38.6042 39.5573 37.8125C40.3709 37.0208 40.7778 36.0833 40.7778 35V11C40.7778 9.91667 40.3709 8.97917 39.5573 8.1875C38.7436 7.39583 37.7801 7 36.6667 7H24.3333ZM24.3333 11H36.6667V35H24.3333V11ZM12 27V35C12 37.1667 12.5567 39.1667 13.6701 41C14.7836 42.8333 16.2824 44.2917 18.1667 45.375C20.0509 46.4583 22.1065 47 24.3333 47H28.4444V51H20.2222V55H40.7778V51H32.5556V47H36.6667C38.8935 47 40.9491 46.4583 42.8333 45.375C44.7176 44.2917 46.2164 42.8333 47.3299 41C48.4433 39.1667 49 37.1667 49 35V27H44.8889V35C44.8889 36.4583 44.5249 37.8125 43.7969 39.0625C43.0689 40.2708 42.0625 41.2292 40.7778 41.9375C39.5359 42.6458 38.1655 43 36.6667 43H24.3333C22.8345 43 21.4427 42.6458 20.158 41.9375C18.9161 41.2292 17.9311 40.2708 17.2031 39.0625C16.4751 37.8125 16.1111 36.4583 16.1111 35V27H12Z" fill="white"/>
</svg>
