<svg width="62" height="62" viewBox="0 0 62 62" fill="none" xmlns="http://www.w3.org/2000/svg">
<path d="M33.3124 9V12.0304C36.3097 12.0304 39.1177 12.788 41.7364 14.3032C44.2289 15.7868 46.2166 17.7755 47.6995 20.2693C49.2139 22.8893 49.9711 25.6988 49.9711 28.6976H53C53 25.1306 52.1008 21.8161 50.3024 18.7541C48.5671 15.7868 46.2166 13.4351 43.2509 11.699C40.1904 9.89965 36.8776 9 33.3124 9ZM17.6475 13.5456C16.7956 13.5456 16.0542 13.8139 15.4232 14.3506L10.5486 19.3223L10.6906 19.2276C9.90182 19.8905 9.38124 20.7112 9.12883 21.6898C8.90798 22.6684 8.97108 23.6154 9.31814 24.5308C10.2016 26.993 11.3847 29.5183 12.8676 32.1068C14.9499 35.6738 17.4267 38.8779 20.2978 41.7189C24.9042 46.3592 30.6306 50.0209 37.4771 52.7041H37.5244C38.4394 53.0197 39.3543 53.0829 40.2693 52.8935C41.2158 52.7041 42.0519 52.2937 42.7776 51.6624L47.5575 46.88C48.1885 46.2487 48.504 45.4753 48.504 44.5599C48.504 43.6129 48.1885 42.8237 47.5575 42.1924L41.3578 35.9422C40.7268 35.3108 39.938 34.9952 38.9915 34.9952C38.045 34.9952 37.2562 35.3108 36.6252 35.9422L33.6437 38.9726C31.2458 37.8362 29.1635 36.4314 27.3967 34.7584C25.6298 33.0538 24.2258 30.9862 23.1846 28.5556L26.2135 25.5252C26.8761 24.8307 27.2074 24.01 27.2074 23.063C27.2074 22.0844 26.8287 21.2952 26.0715 20.6955L26.2135 20.8375L19.8718 14.3506C19.2408 13.8139 18.4994 13.5456 17.6475 13.5456ZM33.3124 15.0608V18.0912C35.237 18.0912 37.0038 18.5647 38.6129 19.5117C40.2535 20.4587 41.5471 21.7529 42.4936 23.3944C43.4402 25.0043 43.9134 26.772 43.9134 28.6976H46.9423C46.9423 26.2354 46.327 23.9468 45.0966 21.8319C43.8661 19.78 42.2255 18.1386 40.1747 16.9075C38.0608 15.6764 35.7734 15.0608 33.3124 15.0608ZM17.6475 16.576C17.7422 16.576 17.8526 16.6234 17.9788 16.7181L24.1785 23.063C24.21 23.1892 24.1785 23.2997 24.0838 23.3944L19.5879 27.8453L19.9192 28.7923L20.5344 30.1181C21.0392 31.1914 21.6229 32.2331 22.2854 33.2432C23.2004 34.6637 24.21 35.879 25.3143 36.8892C26.7972 38.3412 28.5798 39.667 30.6621 40.8666C31.7033 41.4663 32.5867 41.9083 33.3124 42.1924L34.2589 42.6185L38.8495 38.0256C38.9126 37.9624 38.96 37.9309 38.9915 37.9309C39.0231 37.9309 39.0704 37.9624 39.1335 38.0256L45.5225 44.4178C45.5856 44.4809 45.6172 44.5283 45.6172 44.5599C45.6172 44.5599 45.5856 44.5914 45.5225 44.6546L40.7899 49.3422C40.0958 49.942 39.3386 50.0998 38.5183 49.8157C32.0819 47.3219 26.7183 43.9127 22.4274 39.5881C19.7772 36.9365 17.4582 33.9219 15.4705 30.5443C14.0507 28.1136 12.9465 25.7619 12.1577 23.4891V23.4418C12.0315 23.1577 12.0157 22.8262 12.1104 22.4474C12.205 22.037 12.3785 21.7214 12.631 21.5004L17.3162 16.7181C17.4109 16.6234 17.5213 16.576 17.6475 16.576ZM33.3124 21.1216V24.152C34.5744 24.152 35.6471 24.5939 36.5306 25.4778C37.414 26.3617 37.8557 27.4349 37.8557 28.6976H40.8846C40.8846 27.3402 40.5375 26.0776 39.8434 24.9096C39.1808 23.7416 38.2659 22.8262 37.0985 22.1633C35.9311 21.4688 34.6691 21.1216 33.3124 21.1216Z" fill="white"/>
</svg>
