<svg width="62" height="62" viewBox="0 0 62 62" fill="none" xmlns="http://www.w3.org/2000/svg">
<path d="M52.4626 23.634C52.0955 23.3128 51.6482 23.0488 51.1207 22.8422L51.1551 22.8078L51.0519 22.7733C48.6206 21.6254 45.9257 20.6492 42.9673 19.8449C38.8851 18.7877 34.7803 18.2578 30.6529 18.2554C23.9574 18.2514 17.1481 19.7607 10.2251 22.7833L10.1907 22.8176C9.29667 23.2528 8.57476 23.8829 8.02493 24.7081C7.49802 25.5103 7.20047 26.4044 7.13227 27.3903L7.13231 27.4591L7.09793 27.4935L7.13643 34.3381C7.13698 35.2553 7.46994 36.0466 8.13531 36.712C8.82362 37.4003 9.62637 37.7447 10.5436 37.7453L19.5551 37.7507C20.4722 37.7512 21.2746 37.4077 21.9621 36.7203C22.6496 36.0328 22.993 35.2304 22.9925 34.3132L22.9899 29.9795C25.5804 29.0867 28.1139 28.6182 30.5903 28.5738C33.0897 28.5065 35.6122 28.9666 38.158 29.9541L38.1608 34.4943L38.1953 34.6663C38.3793 35.5836 38.781 36.329 39.4004 36.9027C40.0428 37.4992 40.8455 37.7749 41.8086 37.7296L41.8086 37.7984L41.9806 37.7641L50.8201 37.8038C51.7373 37.8043 52.5396 37.4609 53.2271 36.7734C53.9146 36.0859 54.2581 35.2835 54.2575 34.3663L54.2534 27.5561C54.2528 26.5472 53.9771 25.6069 53.4263 24.7353C53.1279 24.2994 52.8067 23.9323 52.4626 23.634ZM50.4347 26.0061C50.8935 26.4191 51.1231 26.9237 51.1235 27.5199L51.1621 34.5021C51.1621 34.5938 51.1507 34.6511 51.1278 34.674C51.1278 34.674 51.0819 34.674 50.9902 34.6739L41.6348 34.6683C41.5889 34.6683 41.566 34.6683 41.566 34.6683C41.566 34.6683 41.543 34.6454 41.4971 34.5995C41.4513 34.5536 41.3938 34.4045 41.3249 34.1522L41.2905 34.1178L41.2217 34.049L41.2523 27.8235L40.3578 27.4102L38.9817 26.8591C37.7891 26.4456 36.585 26.1124 35.3696 25.8595C33.6726 25.5374 32.0559 25.3874 30.5196 25.4094C28.4101 25.454 26.1632 25.7966 23.7789 26.4372C22.5867 26.7576 21.6123 27.0665 20.8558 27.3642L19.893 27.7763L19.8593 28.8425L19.8626 34.4833C19.8627 34.575 19.8513 34.6324 19.8284 34.6553C19.8284 34.6553 19.7825 34.6552 19.6908 34.6552L10.4041 34.6496C10.3124 34.6496 10.2551 34.6381 10.2321 34.6151C10.2321 34.6151 10.2321 34.5693 10.2321 34.4776L10.1936 27.6329L10.2279 27.5298C10.3191 26.6585 10.7429 26.0282 11.4994 25.6388L11.5338 25.6044C18.0212 22.7879 24.4064 21.3816 30.6892 21.3853C34.5414 21.3876 38.4055 21.9059 42.2812 22.94C45.0791 23.6755 47.5905 24.5827 49.8154 25.6618L49.8842 25.6618L49.9186 25.6962C50.125 25.7651 50.297 25.8684 50.4347 26.0061Z" fill="white"/>
</svg>
