<svg width="62" height="62" viewBox="0 0 62 62" fill="none" xmlns="http://www.w3.org/2000/svg">
<path d="M12 8V55H50V8H12ZM16.2222 12.2727H45.7778V50.7273H16.2222V12.2727ZM31 18.6818C29.4606 18.6818 28.0532 19.0824 26.7778 19.8835C25.5023 20.6402 24.4687 21.6638 23.6771 22.9545C22.9294 24.2453 22.5556 25.6695 22.5556 27.2273C22.5556 28.3845 22.7755 29.4972 23.2153 30.5653C23.6991 31.589 24.3368 32.5014 25.1285 33.3026C23.6771 34.2817 22.5336 35.5502 21.6979 37.108C20.8623 38.6657 20.4444 40.357 20.4444 42.1818H24.6667C24.6667 40.4015 25.2824 38.8883 26.5139 37.642C27.7454 36.3958 29.2407 35.7727 31 35.7727C32.7593 35.7727 34.2546 36.3958 35.4861 37.642C36.7176 38.8883 37.3333 40.4015 37.3333 42.1818H41.5556C41.5556 40.357 41.1377 38.6657 40.3021 37.108C39.4664 35.5502 38.3229 34.2817 36.8715 33.3026C37.6632 32.5014 38.2789 31.589 38.7187 30.5653C39.2025 29.4972 39.4444 28.3845 39.4444 27.2273C39.4444 25.6695 39.0486 24.2453 38.2569 22.9545C37.5093 21.6638 36.4977 20.6402 35.2222 19.8835C33.9468 19.0824 32.5394 18.6818 31 18.6818ZM31 22.9545C32.1875 22.9545 33.1771 23.3774 33.9687 24.223C34.8044 25.0241 35.2222 26.0256 35.2222 27.2273C35.2222 28.429 34.8044 29.4527 33.9687 30.2983C33.1771 31.0994 32.1875 31.5 31 31.5C29.8125 31.5 28.8009 31.0994 27.9653 30.2983C27.1736 29.4527 26.7778 28.429 26.7778 27.2273C26.7778 26.0256 27.1736 25.0241 27.9653 24.223C28.8009 23.3774 29.8125 22.9545 31 22.9545Z" fill="white"/>
</svg>
